<?xml version="1.0"?><svg width="50" height="50" xmlns="http://www.w3.org/2000/svg" xmlns:xlink="http://www.w3.org/1999/xlink">
 <title>Number 2 Grey Flat Icon</title>
 <defs>
  <radialGradient r="91.9457" id="svg_258" gradientUnits="userSpaceOnUse" cy="21.8091" cx="66.3477">
   <stop stop-color="#F28888" offset="0" id="svg_260"/>
   <stop stop-color="#D82A2A" offset="1" id="svg_259"/>
  </radialGradient>
  <symbol width="136.93" viewBox="0 0 136.93 136.927" id="svg_261" height="136.927">

   <g id="svg_245">
    <path fill="url(#svg_258)" id="svg_257" d="m132.990005,99.316002c-6.597,-6.595001 -13.189003,-13.188004 -19.784996,-19.782997c-3.288002,-3.288002 -6.576004,-6.577003 -9.864006,-9.865005c-1.915001,-1.915001 -0.105995,-2.308998 1.724998,-4.139999c8.093002,-8.094997 16.188004,-16.189999 24.280998,-24.283001c2.697006,-2.700001 5.927002,-5.249001 6.376007,-9.332998c0.617004,-5.644001 -4.110001,-9.153 -7.651001,-12.693001c-5.773003,-5.772999 -17.326004,-22.656999 -27.023003,-16.642999c-7.657997,4.75 -14.119995,13.763999 -20.431999,20.075999c-3.478996,3.479 -6.957001,6.957001 -10.435997,10.434002c-2.150002,2.149998 -1.827003,1.591 -3.996002,-0.576c-8.050999,-8.051001 -16.104,-16.101999 -24.156998,-24.153001c-2.328003,-2.328 -4.845001,-5.592 -8.057003,-6.692c-6.126999,-2.095 -10.010998,2.47 -13.825998,6.281c-5.602006,5.601999 -21.684006,16.598 -18.467006,26.011999c1.098,3.213001 4.361,5.729 6.688,8.058998c4.404,4.404003 8.807,8.807003 13.211999,13.212002c3.648001,3.647999 7.296001,7.296001 10.945,10.947002c2.167,2.167 2.726002,1.845001 0.576,3.995995c-7.969,7.967003 -15.935999,15.936005 -23.905,23.903999c-2.152,2.152 -4.979,4.334999 -6.608,6.962006c-3.749,6.042 0.466,10.842995 4.523,14.897995c5.48,5.480003 15.905001,20.747993 24.816,19.771996c8.070999,-0.883987 17.021,-14.062996 22.217999,-19.260994c4.016003,-4.012001 8.029003,-8.025002 12.042999,-12.039001c2.167,-2.167 1.845001,-2.725998 3.994003,-0.574997c8.244995,8.241997 16.488998,16.485001 24.732002,24.728996c2.882996,2.882996 5.759995,6.669998 10.103996,7.145996c5.641998,0.617004 9.150002,-4.110001 12.691002,-7.649994c5.942001,-5.942001 24.880997,-19.152 15.283005,-28.741997"/>
    <path fill="#EF5656" id="svg_256" d="m32.108002,5.382c2.125999,2.13 -22.226,24.48 -25.087,26.422001c-4.748,3.223 4.856,-9.947001 5.78,-10.959c1.487998,-1.628002 16.646998,-18.123001 19.307,-15.463001"/>
    <path fill="#EF5656" id="svg_255" d="m38.985001,73.615997c2.172001,2.18 -28.186001,30.286003 -31.196,32.637001c-1.428,1.115997 -3.703,2.101997 -2.240999,-0.648003c2.540999,-4.777 6.724999,-8.939995 10.395999,-12.840996c1.651999,-1.753998 20.404998,-21.785004 23.040999,-19.148003"/>
    <path fill="#EF5656" id="svg_254" d="m99.911003,73.615997c-2.167,2.171997 28.183998,30.286003 31.193001,32.637001c1.429001,1.115997 3.705002,2.101997 2.242996,-0.648003c-2.539001,-4.777 -6.723999,-8.939995 -10.393997,-12.840996c-1.650002,-1.753998 -20.405006,-21.785004 -23.042,-19.148003"/>
    <path fill="#EF5656" id="svg_253" d="m32.108002,5.382c1.841,-1.838 36.187996,33.275002 34.731003,34.733002c-1.558006,1.561996 -39.278004,-30.170002 -34.731003,-34.733002"/>
    <path fill="#EF5656" id="svg_252" d="m105.075996,5.382c-2.128998,2.132 22.223999,24.48 25.086006,26.422001c4.745987,3.223 -4.855003,-9.947001 -5.781006,-10.959c-1.484993,-1.626001 -16.648994,-18.123001 -19.305,-15.463001"/>
    <path fill="#EF5656" id="svg_251" d="m105.075996,5.382c-1.835999,-1.834 -35.939995,33.007999 -34.475998,34.473c1.579002,1.584 39.014999,-29.926 34.475998,-34.473"/>
    <path fill="#B20D0D" id="svg_250" d="m132.569,31.309c-1.837997,-1.837999 -20.787003,18.733 -22.400002,20.360003c-3.008995,3.037998 -7.010002,6.293999 -9.028,10.147999c-1.558998,2.977997 5.515999,-1.839001 5.892006,-2.130001c3.064995,-2.374001 29.679993,-24.242001 25.535995,-28.378"/>
    <path fill="#B20D0D" id="svg_249" d="m68.086998,95.791c-1.588997,-1.594002 -19.854,17.808998 -21.490997,19.445c-4.685001,4.683998 -9.672001,9.237999 -13.859001,14.390999c-2.32,2.854004 -1.628,4.018997 1.599998,1.940994c3.205002,-2.059998 37.681999,-31.85099 33.75,-35.776993"/>
    <path fill="#B20D0D" id="svg_248" d="m6.914,31.309c1.829,-1.833 20.79,18.735003 22.399,20.360003c3.011002,3.039997 7.007999,6.293999 9.028999,10.147999c1.560001,2.977997 -5.514,-1.839001 -5.889999,-2.130001c-3.063999,-2.370998 -29.683,-24.255001 -25.538,-28.378"/>
    <path fill="#B20D0D" id="svg_247" d="m71.536003,95.936996c1.602997,-1.607002 19.133003,17.082001 20.688995,18.639c4.686005,4.683998 9.672005,9.239998 13.857002,14.390007c2.317001,2.854996 1.626999,4.01799 -1.598999,1.941986c-3.206001,-2.060989 -36.932999,-30.997986 -32.946999,-34.970993"/>
    <path fill="#970F00" id="svg_246" d="m30.881001,0.022c-7.374001,0 -14.027,9.615 -18.709,14.297c-5.675001,5.674 -16.408001,13.271999 -10.383001,22.411999c3.84,5.826 10.373,10.68 15.26,15.567001c5.387001,5.388 10.777,10.771 16.160999,16.162998c-8.731998,8.721001 -17.454,17.452003 -26.180999,26.179001c-4.257,4.256996 -8.981,8.756996 -6.191,15.486c2.154,5.201004 8.574,9.711998 12.413999,13.552002c3.698,3.697998 7.337,8.499001 11.725,11.435005c6.522001,4.36499 12.053999,0.047989 16.562998,-4.459c8.978001,-8.978004 17.962002,-17.951004 26.934002,-26.934006c8.722,8.732002 17.454002,17.454002 26.181,26.179001c4.257004,4.255005 8.752998,8.979004 15.485001,6.190994c5.198997,-2.153 9.710999,-8.570999 13.552002,-12.411995c3.696999,-3.696999 8.498993,-7.334999 11.43399,-11.723c4.325012,-6.461998 0.058014,-12.044998 -4.457993,-16.563004c-8.979004,-8.977997 -17.952003,-17.959999 -26.934998,-26.931999c8.722,-8.731998 17.453995,-17.455997 26.181992,-26.182999c4.242004,-4.241997 8.927002,-8.710999 6.212006,-15.418999c-2.119003,-5.23 -8.590004,-9.774 -12.434998,-13.62c-3.701004,-3.698999 -7.355003,-8.548 -11.768005,-11.46c-6.516998,-4.301 -12.020996,-0.013 -16.520996,4.485c-8.978004,8.978 -17.959999,17.951001 -26.931999,26.934c-6.127003,-6.135 -12.260002,-12.26 -18.389999,-18.392c-4.735001,-4.732002 -11.717003,-14.787002 -19.200001,-14.783002m-5.93,132.153003c-6.719,-6.717003 -29.726999,-22.530998 -19.429001,-32.829002c10.296001,-10.293999 20.590001,-20.591003 30.887002,-30.886002c-6.552999,-6.551998 -13.106001,-13.106998 -19.661001,-19.66c-5.180999,-5.181 -20.181999,-15.68 -11.921999,-23.938c6.609,-6.608 13.221001,-13.216999 19.830999,-19.825c8.307001,-8.303001 17.727999,5.276 23.090002,10.635999c6.890999,6.890999 13.781998,13.782 20.672997,20.671c0.104004,0.104 17.340004,-17.238001 18.625999,-18.521999c5.156006,-5.156 16.596001,-21.437001 24.944,-13.079c7.122002,5.452 13.205002,13.201 19.556999,19.548c8.669998,8.668001 -4.559998,17.712999 -10.287994,23.442999c-6.909004,6.909 -13.817001,13.818001 -20.727005,20.728001c10.312004,10.309006 22.737,20.149002 31.656998,31.656998c8.242996,8.240005 -7.112999,18.976006 -12.247993,24.109001c-5.530006,5.527008 -12.562004,15.199005 -20.584,7.178009c-6.651001,-6.650009 -13.301003,-13.30201 -19.953003,-19.952003c-2.148003,-2.147003 -9.520996,-12.340004 -12.117996,-9.746002c-6.862003,6.862 -13.724003,13.722 -20.585003,20.584c-4.958,4.954002 -13.974998,17.676994 -21.75,9.883003"/>
   </g>
  </symbol>
 </defs>
 <g>
  <title>Layer 1</title>
  <use x="81.061417" y="272.437321" transform="matrix(0.118552, 0, 0, 0.118552, 8.6067, -17.0798)" xlink:href="#svg_261" id="svg_262"/>
 </g>
</svg>